<svg id="fast-forward-double-right-arrows-symbol" xmlns="http://www.w3.org/2000/svg" width="13" height="13" viewBox="0 0 30.878 30.874"><g id="_x35__11_"><g id="Group_3383" data-name="Group 3383" transform="translate(0 0)"><path id="Path_2704" data-name="Path 2704" d="M.759,13.639,13.6.795a2.594,2.594,0,1,1,3.669,3.669L6.264,15.472,17.272,26.48A2.594,2.594,0,1,1,13.6,30.149L.759,17.305A2.592,2.592,0,0,1,.759,13.639ZM16.2,12.861,26.4,2.114a2.53,2.53,0,0,1,3.709,0,2.869,2.869,0,0,1,0,3.908l-8.343,8.793,8.343,8.793a2.869,2.869,0,0,1,0,3.908,2.53,2.53,0,0,1-3.709,0L16.2,16.769A2.869,2.869,0,0,1,16.2,12.861Z" transform="translate(0.001 -0.035)" fill="#5156be"></path></g></g></svg>